<?xml version="1.0" encoding="utf-8"?>
<!-- Generator: Adobe Illustrator 19.1.0, SVG Export Plug-In . SVG Version: 6.00 Build 0)  -->
<svg version="1.1" id="Layer_1" xmlns="http://www.w3.org/2000/svg" xmlns:xlink="http://www.w3.org/1999/xlink" x="0px" y="0px"
	 viewBox="0 0 316.5 115.5" style="enable-background:new 0 0 316.5 115.5;" xml:space="preserve">
<style type="text/css">
	.st0{fill:#FFCD2A;}
	.st1{fill:#1A1A1A;}
</style>
<rect class="st0" width="316.5" height="115.5"/>
<g>
	<polygon class="st1" points="63.1,18.1 15.1,18.1 15.1,29.1 31.1,29.1 31.1,97.1 47.1,97.1 47.1,29.1 63.1,29.1 	"/>
	<polygon class="st1" points="167.3,18.1 152.8,18.1 140.7,47.1 140.5,47.1 128.7,18.1 112.4,18.1 128.9,56.6 115.3,88.1 95.6,18.1 
		79.5,18.1 57.2,97.1 70,97.1 87.5,38.1 105.1,97.1 111.3,97.1 117.9,97.1 126,97.1 138.9,66.1 139.2,66.1 151.9,97.1 168.5,97.1 
		150.9,56.5 	"/>
	<rect x="179.1" y="18.1" class="st1" width="15" height="79"/>
	<polygon class="st1" points="206.1,97.1 249.1,97.1 249.1,86.1 221.1,86.1 221.1,62.1 243.1,62.1 243.1,51.1 221.1,51.1 
		221.1,29.1 249.1,29.1 249.1,18.1 206.1,18.1 	"/>
	<path class="st1" d="M284.6,53.6c-10.1-7-13.1-11.2-13.1-16.8c0-5.5,3-7.6,7.9-7.6c4.9,0,7.8,2.1,7.8,7.6v3.4h15v-2.6
		c0-12.4-8.1-19.5-23-19.5c-14.9,0-22.8,7.1-22.8,19.5c0,8.9,4,15.3,16.8,24.2c10.1,7,13.1,11.2,13.1,16.8c0,5.5-3.1,7.5-8,7.5
		c-4.9,0-8-2-8-7.5v-5.5h-14v4.7c0,12.4,7.6,19.5,22.7,19.5c15.1,0,22.8-7.1,22.8-19.5C301.6,68.9,297.4,62.5,284.6,53.6z"/>
	<line class="st1" x1="69.8" y1="97.3" x2="69.8" y2="97.3"/>
	<polygon class="st1" points="75.1,97.1 99.9,97.1 87.5,83.5 	"/>
</g>
</svg>
